<svg id="_x33_0" enable-background="new 0 0 64 64" height="512" viewBox="0 0 64 64" width="512" xmlns="http://www.w3.org/2000/svg"><path d="m40 18v7l-1-1-2.1 2.1-.1-.1c-2.53-2.47-5.99-4-9.8-4-1.76 0-3.45.33-5 .93v-4.93z" fill="#ffeaa7"/><path d="m40 18h-18l4-4h10z" fill="#fcd770"/><path d="m36 4.58v1.42h-10v-1.42c0-.82.5-1.56 1.26-1.86 1.2-.48 2.47-.72 3.74-.72s2.54.24 3.74.72c.76.3 1.26 1.04 1.26 1.86z" fill="#aab2bd"/><path d="m26 6h10v8h-10z" fill="#aab2bd"/><path d="m42 35v1h-1c0-2.15-.48-4.18-1.35-6l-.32-.32 2.67-2.68-2-2v-7h18v17z" fill="#ffeaa7"/><path d="m58 18h-18l4-4h10z" fill="#fcd770"/><path d="m44 6h10v8h-10z" fill="#aab2bd"/><path d="m54 4.58v1.42h-10v-1.42c0-.82.5-1.56 1.26-1.86 1.2-.48 2.47-.72 3.74-.72s2.54.24 3.74.72c.76.3 1.26 1.04 1.26 1.86z" fill="#aab2bd"/><path d="m42 36v26h-22v-13.88c2.06 1.2 4.45 1.88 7 1.88 7.73 0 14-6.27 14-14z" fill="#d3a06c"/><path d="m46 43-4-8v1 26h18v-19z" fill="#d3a06c"/><path d="m50 48h10v10h-10z" fill="#e6e9ed"/><path d="m58 35 4 8h-2-14l-4-8z" fill="#b27946"/><path d="m16 54-6.76 6.76c-.79.79-1.87 1.24-3 1.24-1.17 0-2.23-.48-3-1.24-.76-.77-1.24-1.83-1.24-3 0-1.13.45-2.21 1.24-3l6.76-6.76 1.5 1.5 1.5 1.5 1.5 1.5z" fill="#838f9b"/><path d="m16.16 44.84c.89 1.11 1.95 2.07 3.15 2.85l-.01.01-4.8 4.8-1.5-1.5-1.5-1.5 4.65-4.65z" fill="#ccd1d9"/><path d="m22 22.93c1.55-.6 3.24-.93 5-.93 3.81 0 7.27 1.53 9.8 4l.1.1-2.83 2.83-.07-.07c-1.8-1.77-4.27-2.86-7-2.86-5.52 0-10 4.48-10 10s4.48 10 10 10 10-4.48 10-10c0-1.05-.16-2.05-.46-3l-.27-.27 3.06-3.05.32.32c.87 1.82 1.35 3.85 1.35 6 0 7.73-6.27 14-14 14-2.55 0-4.94-.68-7-1.88-.24-.13-.47-.28-.69-.43-1.2-.78-2.26-1.74-3.15-2.85-1.98-2.41-3.16-5.49-3.16-8.84 0-5.97 3.74-11.06 9-13.07z" fill="#e6e9ed"/><path d="m27 42 9.27-9.27.27.27c.3.95.46 1.95.46 3 0 5.52-4.48 10-10 10s-10-4.48-10-10 4.48-10 10-10c2.73 0 5.2 1.09 7 2.86l.07.07-7.07 7.07-3-3-3 3z" fill="#69d6f4"/><path d="m42 27-2.67 2.68-3.06 3.05-9.27 9.27-6-6 3-3 3 3 7.07-7.07 2.83-2.83 2.1-2.1 1 1z" fill="#fcd770"/><path d="m63.618 44-4.618-9.236v-17.178l-4-4v-9.008c0-1.234-.74-2.327-1.886-2.786-2.653-1.061-5.575-1.061-8.229 0-1.145.458-1.885 1.552-1.885 2.786v9.008l-3 3-3-3v-9.008c0-1.234-.74-2.327-1.886-2.786-2.653-1.061-5.575-1.061-8.229 0-1.145.458-1.885 1.552-1.885 2.786v9.008l-4 4v4.675c-5.291 2.32-9 7.601-9 13.739 0 3.266 1.061 6.281 2.839 8.747l-3.339 3.339-1.5-1.5-7.464 7.464c-.991.99-1.536 2.306-1.536 3.708 0 2.89 2.352 5.242 5.243 5.242 1.399 0 2.716-.545 3.707-1.535l7.464-7.465-1.5-1.5 3.086-3.086v13.586h42v-19zm-17-2-3-6h13.764l3 6zm-10.618-6c0 4.963-4.038 9-9 9s-9-4.037-9-9c0-4.962 4.038-9 9-9 2.064 0 4.027.694 5.617 1.969l-5.617 5.617-3-3-4.414 4.414 7.414 7.414 8.875-8.875c.079.481.125.968.125 1.461zm-9 4.586-4.586-4.586 1.586-1.586 3 3 12-12 1.586 1.586zm14.854-6.586c-.194-1.461-.597-2.875-1.215-4.225l2.775-2.775-2.414-2.414v-5.586h16v15zm-14.854-27h8v6h-8zm8.586 8 2 2h-13.172l2-2zm9.414-8h8v6h-8zm8.586 8 2 2h-13.172l2-2zm-7.957-11.351c2.174-.87 4.568-.87 6.742 0 .382.153.629.518.629.929v.422h-8v-.422c0-.411.247-.776.629-.929zm-18 0c2.174-.87 4.568-.87 6.742 0 .382.153.629.518.629.929v.422h-8v-.422c0-.411.247-.776.629-.929zm-4.629 15.351h16v3.586l-2.136 2.136c-2.735-2.397-6.199-3.722-9.864-3.722-1.387 0-2.724.204-4 .558zm4 4c3.131 0 6.095 1.115 8.449 3.137l-1.415 1.415c-1.973-1.648-4.436-2.552-7.034-2.552-6.065 0-11 4.935-11 11s4.935 11 11 11 11-4.935 11-11c0-1.066-.157-2.117-.457-3.129l1.565-1.565c.581 1.493.892 3.064.892 4.694 0 7.168-5.832 13-13 13s-13-5.832-13-13 5.832-13 13-13zm-18.464 37.05c-.613.613-1.428.95-2.293.95-1.788 0-3.243-1.454-3.243-3.242 0-.867.337-1.681.95-2.293l6.05-6.051 4.586 4.586zm4.378-10.55 3.205-3.205c.515.544 1.069 1.049 1.66 1.512l-3.279 3.279zm8.086.239c1.839.806 3.866 1.261 6 1.261 6.388 0 11.841-4.021 14-9.659v19.659h-20zm38 7.261h-8v-8h8zm0-10h-10v12h10v2h-16v-21.764l2.382 4.764h13.618z"/><path d="m31 57h8v2h-8z"/><path d="m37 53h2v2h-2z"/><path d="m27 57h2v2h-2z"/><path d="m29 9h4v2h-4z"/><path d="m47 9h4v2h-4z"/></svg>