<svg id="_x33_0" enable-background="new 0 0 64 64" height="512" viewBox="0 0 64 64" width="512" xmlns="http://www.w3.org/2000/svg"><path d="m46.1 55-2.1 7h-34l-3-10h29v3z" fill="#e6e9ed"/><path d="m45 20c1.1 0 2 .9 2 2v15h-4.03l.02-13 .01-4z" fill="#cf9e76"/><path d="m36 48v4h-29v-4h4 6z" fill="#fcd770"/><path d="m11 24v24h-4v-26c0-1.1.9-2 2-2h2z" fill="#cf9e76"/><path d="m43 20-.01 4h-11.99-8-12v-4h8 4 4 4 4 4z" fill="#cf9e76"/><path d="m31 11v3h-8v-3c0-.55.45-1 1-1h3 3c.55 0 1 .45 1 1z" fill="#ffeaa7"/><path d="m31 14h3c.55 0 1 .45 1 1v5h-4-4-4-4v-5c0-.55.45-1 1-1h3z" fill="#fcd770"/><path d="m36 44v4h-19l1-4z" fill="#aab2bd"/><path d="m29 28v4.54c-.59-.34-1.27-.54-2-.54s-1.41.2-2 .54v-4.54z" fill="#ffeaa7"/><path d="m31 24v4h-2-4-2v-4z" fill="#fcd770"/><path d="m29 32.54c1.2.69 2 1.98 2 3.46 0 2.21-1.79 4-4 4s-4-1.79-4-4c0-1.48.8-2.77 2-3.46.59-.34 1.27-.54 2-.54s1.41.2 2 .54z" fill="#ccd1d9"/><path d="m43.41 2.59c-.36-.37-.86-.59-1.41-.59-1.1 0-2 .9-2 2v10h4v-10c0-.55-.22-1.05-.59-1.41z" fill="#e6e9ed"/><path d="m45 16v4h-2-4v-4l1-2h4z" fill="#ccd1d9"/><g fill="#b4dd7f"><path d="m60 42v2c-.39.39-.61.61-1 1h-3v-4h3z"/><path d="m60 50v2c-.39.39-.61.61-1 1h-3v-4h3z"/><path d="m54 55v5c0 .55-.22 1.05-.59 1.41-.36.37-.86.59-1.41.59-1.1 0-2-.9-2-2v-5z"/></g><path d="m56 53v2h-2-4-3.9-10.1v-3-4-4-7h6.97 4.03 9v4 4 4z" fill="#e6e9ed"/><path d="m40 41h8v6h-8z" fill="#69d6f4"/><path d="m49 40h-10v8h10zm-2 6h-6v-4h6z"/><path d="m39 50h2v2h-2z"/><path d="m43 50h2v2h-2z"/><path d="m47 50h2v2h-2z"/><path d="m51 48h2v4h-2z"/><path d="m59.414 46 1.586-1.586v-2.828l-1.586-1.586h-2.414v-4h-9v-14c0-1.302-.839-2.402-2-2.816v-3.42l-1-2v-9.764c0-1.654-1.346-3-3-3s-3 1.346-3 3v1h-10c-1.654 0-3 1.346-3 3v1h-2c-1.103 0-2 .897-2 2v2h-1.999c-1.103 0-2.001.897-2.001 2v4h-9c-1.654 0-3 1.346-3 3v30l3.256 11h35.488l2.1-7h2.156v4c0 1.654 1.346 3 3 3s3-1.346 3-3v-4h2v-2h2.414l1.586-1.586v-2.828l-1.586-1.586h-2.414v-2zm-.828-4 .414.414v1.172l-.414.414h-1.586v-2zm-14.616-6 .028-15h1.002c.551 0 1 .449 1 1v14zm-8.97 15h-27v-2h27zm6.998-30-.004 2h-29.994v-2zm-.998-8v-2h2v2zm2-4h-2v-2h2zm-2.382 6h2.764l.618 1.236v2.764h-4v-2.764zm-13.618 18c1.654 0 3 1.346 3 3s-1.346 3-3 3-3-1.346-3-3 1.346-3 3-3zm0-2c-.342 0-.677.035-1 .101v-2.101h2v2.101c-.323-.066-.658-.101-1-.101zm-3-4v-2h6v2zm11 20h-16.719l.5-2h16.219zm0-11v7h-17.781l-1 4h-4.219v-22h10v4h2v3.026c-1.207.914-2 2.348-2 3.974 0 2.757 2.243 5 5 5s5-2.243 5-5c0-1.627-.793-3.061-2-3.974v-3.026h2v-4h9.991l-.021 11zm6-32c0-.551.449-1 1-1s1 .449 1 1v1h-2zm-13 4c0-.551.449-1 1-1h10v6.764l-1 2v3.236h-2v-4c0-1.103-.898-2-2.001-2h-1.999v-2c0-1.103-.897-2-2-2h-2zm-4 3h6v2h-6zm-3.999 4h13.999v4h-2v-2h-2v2h-2v-2h-2v2h-2v-2h-2v2h-2zm-11.001 6h1v26h-2v-25c0-.551.449-1 1-1zm34.256 40h-32.512l-2.4-8h26.656v3h9.756zm9.744-1c0 .551-.449 1-1 1s-1-.449-1-1v-4h2zm2-6h-18v-16h18zm3.586-4 .414.414v1.172l-.414.414h-1.586v-2z"/><path d="m51 40h2v2h-2z"/><path d="m51 44h2v2h-2z"/></svg>