<svg height="512" viewBox="0 0 64 64" width="512" xmlns="http://www.w3.org/2000/svg"><path d="m3 9h53a0 0 0 0 1 0 0v48a4 4 0 0 1 -4 4h-45a4 4 0 0 1 -4-4v-48a0 0 0 0 1 0 0z" fill="#ffeb99"/><path d="m5 57v-48h-2v48a4 4 0 0 0 4 4h2a4 4 0 0 1 -4-4z" fill="#ffde55"/><path d="m13 53h-8v4a2 2 0 0 0 2 2h6z" fill="#00479b"/><path d="m5 47h8v6h-8z" fill="#004fac"/><path d="m7.243 51.1-.241.241z" fill="#315a13"/><path d="m5 41h8v6h-8z" fill="#006df0"/><path d="m5 35h8v6h-8z" fill="#9bc9ff"/><path d="m25 53h6v8h-6z" fill="#ff8c9e"/><path d="m54 3h-49a2 2 0 0 0 -2 2v4h53v-4a2 2 0 0 0 -2-2z" fill="#004fac"/><path d="m7 3h-2a2 2 0 0 0 -2 2v4h2v-4a2 2 0 0 1 2-2z" fill="#003f8a"/><path d="m59 34h-24a2 2 0 0 0 -2 2v4h28v-4a2 2 0 0 0 -2-2z" fill="#006df0"/><path d="m33 40v19a2 2 0 0 0 2 2h4v-21z" fill="#ffb655"/><path d="m39 61h20a2 2 0 0 0 2-2v-19h-22z" fill="#ffc477"/><path d="m19.435 39.565h6v8h-6z" fill="#c8ec74" transform="matrix(.707 -.707 .707 .707 -24.234 28.624)"/><path d="m18.899 52.757-5.656-5.656-.241.24-4.002 4.002 5.657 5.657z" fill="#5eac24"/><path d="m15.192 43.808h6v8h-6z" fill="#9bdf69" transform="matrix(.707 -.707 .707 .707 -28.477 26.866)"/><path d="m6.172 54.172a4 4 0 0 0 5.656 5.656l2.829-2.828-5.657-5.657z" fill="#4e901e"/><path d="m6 5h2v2h-2z" fill="#f1f2f2"/><path d="m10 5h2v2h-2z" fill="#f1f2f2"/><path d="m14 5h2v2h-2z" fill="#f1f2f2"/><g fill="#ffcd00"><path d="m9 32a1 1 0 0 1 -1-1v-16a1 1 0 0 1 2 0v16a1 1 0 0 1 -1 1z"/><path d="m16 19a1 1 0 0 1 -.554-.168l-3-2a1 1 0 0 1 0-1.664l3-2a1 1 0 1 1 1.11 1.664l-1.756 1.168 1.752 1.168a1 1 0 0 1 -.552 1.832z"/><path d="m24 19a1 1 0 0 1 -.556-1.832l1.756-1.168-1.752-1.168a1 1 0 0 1 1.11-1.664l3 2a1 1 0 0 1 0 1.664l-3 2a1 1 0 0 1 -.558.168z"/><path d="m19 20a1 1 0 0 1 -.949-1.316l2-6a1 1 0 0 1 1.9.632l-2 6a1 1 0 0 1 -.951.684z"/><path d="m12 22h6v2h-6z"/><path d="m20 22h2v2h-2z"/><path d="m15 25h12v2h-12z"/><path d="m33 25h7v2h-7z"/><path d="m15 28h2v2h-2z"/><path d="m19 28h12v2h-12z"/><path d="m33 28h4v2h-4z"/><path d="m29 25h2v2h-2z"/><path d="m13 31h4v2h-4z"/><path d="m19 31h2v2h-2z"/><path d="m23 31h9v2h-9z"/><path d="m15 34h11v2h-11z"/><path d="m28 34h2v2h-2z"/><path d="m40 28h11v2h-11z"/><path d="m42 25h9v2h-9z"/></g><path d="m9 53a4 4 0 0 0 0 8h4v-8z" fill="#d80027"/><path d="m19 61v-8h-.34-5.66v8z" fill="#ff3051"/><path d="m19 53h6v8h-6z" fill="#ff5e78"/><path d="m8 56h2v2h-2z" fill="#f1f2f2"/></svg>