<svg id="Layer_1" enable-background="new 0 0 508.716 508.716" height="512" viewBox="0 0 508.716 508.716" width="512" xmlns="http://www.w3.org/2000/svg"><path d="m192.262 497.838c-15.475-2.001-26.398-16.168-24.397-31.643l16.105-124.536h-96.912c-15.604 0-28.253-12.649-28.253-28.253s12.649-28.253 28.253-28.253h129.055c8.125 0 15.857 3.498 21.221 9.6 5.364 6.103 7.841 14.219 6.799 22.277l-20.228 156.413c-1.997 15.452-16.148 26.401-31.643 24.395z" fill="#414b82"/><path d="m492.072 30.914h-75.441c-7.514 0-14.096 5.034-16.063 12.286l-63.586 234.334h171.734v-229.976c0-9.192-7.452-16.644-16.644-16.644z" fill="#55879b"/><path d="m136.201 124.976h-37.802c-33.08 0-59.897 26.817-59.897 59.897v99.879c0 33.853 27.443 61.296 61.296 61.296l69.313-60.896v-127.266c0-18.176-14.734-32.91-32.91-32.91z" fill="#64afff"/><ellipse cx="138.522" cy="62.936" fill="#ffb69e" rx="52.292" ry="52.292" transform="matrix(.222 -.975 .975 .222 46.471 184.08)"/><path d="m74.641 347.542h34.56v118.524h-34.56z" fill="#55879b"/><path d="m282.442 251.245c-11.581 2.004-20.039 12.052-20.039 23.805v200.313c0 12.543 10.168 22.711 22.711 22.711h223.602v-285.986z" fill="#46738c"/><path d="m313.064 280.833-93.421-121.544c-3.49-4.54-2.638-11.049 1.902-14.539 4.543-3.49 11.051-2.637 14.538 1.902l93.421 121.544c3.49 4.54 2.638 11.049-1.902 14.539-4.519 3.473-11.033 2.658-14.538-1.902z" fill="#c8e6eb"/><path d="m160.342 237.483-22.294-21.479 5.525-28.666 27.33-5.068 8.836 8.513 59.367-37.358c11.007-6.926 25.543-3.619 32.467 7.387 6.926 11.005 3.618 25.541-7.387 32.467l-74.969 47.176c-9.123 5.741-21.043 4.574-28.875-2.972z" fill="#ffb69e"/><path d="m130.003 142.864c-9.363-9.023-24.27-8.744-33.291.62-9.022 9.364-8.745 24.269.62 33.291l40.717 39.229 32.855-33.734z" fill="#4699f2"/><path d="m134.773 493.013-18.685-18.685h-50.028l-18.685 18.685c-6.748 6.749-17.689 6.749-24.437 0-6.748-6.748-6.748-17.689 0-24.437l23.746-23.746c3.241-3.241 7.636-5.061 12.219-5.061h64.343c4.583 0 8.978 1.821 12.219 5.061l23.746 23.746c6.748 6.748 6.748 17.689 0 24.437s-17.69 6.749-24.438 0z" fill="#6c9baa"/><path d="m170.255 373.161h-150.095c-11.134 0-20.16-9.026-20.16-20.16s9.026-20.16 20.16-20.16h150.095c11.134 0 20.16 9.026 20.16 20.16s-9.026 20.16-20.16 20.16z" fill="#87afb9"/></svg>