<svg height="512" viewBox="0 0 64 64" width="512" xmlns="http://www.w3.org/2000/svg"><path d="m3 21h52a0 0 0 0 1 0 0v34a2 2 0 0 1 -2 2h-48a2 2 0 0 1 -2-2v-34a0 0 0 0 1 0 0z" fill="#ffdaaa"/><path d="m3 26v29a2 2 0 0 0 2 2h29a30.982 30.982 0 0 1 -31-31z" fill="#ffc477"/><path d="m55 17v28h4a2.006 2.006 0 0 0 2-2v-34h-52v6h44a2 2 0 0 1 2 2z" fill="#ffc477"/><path d="m53 15h-48a2 2 0 0 0 -2 2v4h52v-4a2 2 0 0 0 -2-2z" fill="#004fac"/><path d="m59 3h-48a2 2 0 0 0 -2 2v4h52v-4a2 2 0 0 0 -2-2z" fill="#004fac"/><path d="m47.16 46.33v.01l2.33 2.32-2.83 2.83-2.33-2.33a7.031 7.031 0 0 1 -1.33.55v3.29h-4v-3.29a7.031 7.031 0 0 1 -1.33-.55l-2.33 2.33-2.83-2.83 2.33-2.32v-.01a7.031 7.031 0 0 1 -.55-1.33h-3.29v-4h3.29a7.031 7.031 0 0 1 .55-1.33l-2.33-2.33 2.83-2.83 2.32 2.33h.01a7.031 7.031 0 0 1 1.33-.55v-3.29h4v3.29a7.031 7.031 0 0 1 1.33.55h.01l2.32-2.33 2.83 2.83-2.33 2.33a7.031 7.031 0 0 1 .55 1.33h3.29v4h-3.29a7.031 7.031 0 0 1 -.55 1.33z" fill="#ffcd00"/><circle cx="41" cy="43" fill="#f1f2f2" r="3"/><path d="m25.16 54.33v.01l2.33 2.32-2.83 2.83-2.33-2.33a7.031 7.031 0 0 1 -1.33.55v3.29h-4v-3.29a7.031 7.031 0 0 1 -1.33-.55l-2.33 2.33-2.83-2.83 2.33-2.32v-.01a7.031 7.031 0 0 1 -.55-1.33h-3.29v-4h3.29a7.031 7.031 0 0 1 .55-1.33l-2.33-2.33 2.83-2.83 2.32 2.33h.01a7.031 7.031 0 0 1 1.33-.55v-3.29h4v3.29a7.031 7.031 0 0 1 1.33.55h.01l2.32-2.33 2.83 2.83-2.33 2.33a7.031 7.031 0 0 1 .55 1.33h3.29v4h-3.29a7.031 7.031 0 0 1 -.55 1.33z" fill="#ff9811"/><circle cx="19" cy="51" fill="#f1f2f2" r="3"/><path d="m12 5h2v2h-2z" fill="#f1f2f2"/><path d="m16 5h2v2h-2z" fill="#f1f2f2"/><path d="m20 5h2v2h-2z" fill="#f1f2f2"/><path d="m6 17h2v2h-2z" fill="#f1f2f2"/><path d="m10 17h2v2h-2z" fill="#f1f2f2"/><path d="m14 17h2v2h-2z" fill="#f1f2f2"/><g fill="#ff9811"><path d="m16 24h28v2h-28z"/><path d="m12 32h2v2h-2z"/><path d="m16 28h28v2h-28z"/><path d="m12 36h2v2h-2z"/><path d="m12 24h2v2h-2z"/><path d="m12 28h2v2h-2z"/><path d="m16 32h14v2h-14z"/><path d="m16 36h12v2h-12z"/></g></svg>