<svg height="512" viewBox="0 0 64 64" width="512" xmlns="http://www.w3.org/2000/svg"><g id="Drone_dalivey" data-name="Drone dalivey"><path d="m19 11a2 2 0 0 0 0-4h-14a2 2 0 0 0 0 4z" fill="#ffb655"/><path d="m14 5a2 2 0 0 0 -4 0v2h4z" fill="#ff3051"/><path d="m16 19a2 2 0 0 1 -2-2v-6h-4v6a6 6 0 0 0 6 6h8v-4z" fill="#57a4ff"/><path d="m59 7h-14a2 2 0 0 0 0 4h14a2 2 0 0 0 0-4z" fill="#ffb655"/><path d="m54 5a2 2 0 0 0 -4 0v2h4z" fill="#ff3051"/><path d="m50 17a2 2 0 0 1 -2 2h-8v4h8a6 6 0 0 0 6-6v-6h-4z" fill="#57a4ff"/><rect fill="#006df0" height="14" rx="2" width="16" x="24" y="14"/><circle cx="32" cy="21" fill="#f1f2f2" r="3"/><path d="m28 28h8v7h-8z" fill="#58595b"/><rect fill="#c49a6c" height="26" rx="2" width="32" x="16" y="35"/><path d="m22 41h20v14h-20z" fill="#ffdaaa"/><path d="m28 28h8v2h-8z" fill="#414042"/><path d="m50 11h4v2h-4z" fill="#2488ff"/><path d="m10 11h4v2h-4z" fill="#2488ff"/><path d="m16 46v13a2 2 0 0 0 2 2h15c-9.4 0-17-6.709-17-15z" fill="#a97c50"/><path d="m39 51h-2v-4.586l.293.293a1 1 0 0 0 1.414-1.414l-2-2a1 1 0 0 0 -1.414 0l-2 2a1 1 0 0 0 1.414 1.414l.293-.293v4.586h-6v-4.586l.293.293a1 1 0 0 0 1.414-1.414l-2-2a1 1 0 0 0 -1.414 0l-2 2a1 1 0 0 0 1.414 1.414l.293-.293v4.586h-2a1 1 0 0 0 0 2h14a1 1 0 0 0 0-2z" fill="#ff9811"/><path d="m9 31h-2v-2a1 1 0 0 0 -2 0v2h-2a1 1 0 0 0 0 2h2v2a1 1 0 0 0 2 0v-2h2a1 1 0 0 0 0-2z" fill="#ffcd00"/><path d="m61 31h-2v-2a1 1 0 0 0 -2 0v2h-2a1 1 0 0 0 0 2h2v2a1 1 0 0 0 2 0v-2h2a1 1 0 0 0 0-2z" fill="#ff3051"/><g fill="#f1f2f2"><path d="m42 57h-2a1 1 0 0 0 0 2h2a1 1 0 0 0 0-2z"/><path d="m36 57h-14a1 1 0 0 0 0 2h14a1 1 0 0 0 0-2z"/></g></g></svg>