<svg id="Layer_1" enable-background="new 0 0 128 128" height="512" viewBox="0 0 128 128" width="512" xmlns="http://www.w3.org/2000/svg"><path d="m121.019 21.031h-109.556c-1.92 0-3.481 1.562-3.481 3.481v83.457c0 1.92 1.562 3.481 3.481 3.481h109.556c1.92 0 3.481-1.562 3.481-3.481v-83.457c0-1.92-1.562-3.481-3.481-3.481z" fill="#e6e7e8"/><path d="m116.377 17.549h-109.556c-1.282 0-2.321 1.039-2.321 2.321v83.457c0 1.282 1.039 2.321 2.321 2.321h109.556c1.282 0 2.321-1.039 2.321-2.321v-83.457c0-1.281-1.04-2.321-2.321-2.321z" fill="#6dc9f7"/><path d="m60.537 39.673h-34.271c-1.923 0-3.482 1.559-3.482 3.482v34.272c0 1.923 1.559 3.482 3.482 3.482h34.272c1.923 0 3.482-1.559 3.482-3.482v-34.273c-.001-1.922-1.56-3.481-3.483-3.481z" fill="#fa759e"/><path d="m26.265 77.426v-34.272c0-1.923 1.559-3.481 3.481-3.481h-3.481c-1.923 0-3.481 1.559-3.481 3.481v34.272c0 1.923 1.559 3.481 3.481 3.481h3.481c-1.922 0-3.481-1.558-3.481-3.481z" fill="#fff"/><path d="m53.991 47.549h-21.179c-1.188 0-2.151.963-2.151 2.151v21.179c0 1.188.963 2.151 2.151 2.151h21.179c1.188 0 2.151-.963 2.151-2.151v-21.178c0-1.188-.963-2.152-2.151-2.152z" fill="#ffd7e5"/><g fill="#3a2c60"><path d="m116.376 16.549h-49.46c-.552 0-1 .448-1 1s.448 1 1 1h49.46c.729 0 1.321.592 1.321 1.321v7.667h-17.95c-.672 0-1.293.304-1.706.834l-6.611 8.499h-10.083c-.477-2.771-2.892-4.889-5.798-4.889-3.247 0-5.889 2.642-5.889 5.889s2.642 5.889 5.889 5.889c2.906 0 5.321-2.118 5.798-4.889h10.573c.309 0 .6-.143.79-.386l6.911-8.885c.03-.039.077-.062.126-.062h17.95v11.062h-12.576c-.662 0-1.299.312-1.706.834l-6.562 8.437c-.031.04-.077.062-.126.062h-9.326c-.552 0-1 .448-1 1s.448 1 1 1h9.326c.672 0 1.293-.304 1.706-.834l6.562-8.437c.03-.039.078-.062.126-.062h12.576v12.025h-10.255c-.671 0-1.292.304-1.706.834l-6.562 8.437c-.031.04-.077.062-.127.062h-11.646c-.552 0-1 .448-1 1s.448 1 1 1h11.647c.671 0 1.292-.304 1.706-.834l6.562-8.437c.031-.04.077-.062.127-.062h10.255v18.617h-10.822c-.309 0-.6.143-.79.386l-6.91 8.884c-.031.04-.077.063-.127.063h-27.228c-1.191 0-2.16.969-2.16 2.16v10.025c0 .088-.072.161-.161.161h-34.025c-1.191 0-2.16.969-2.16 2.16v5.568h-16.173v-9.277c2.771-.477 4.889-2.892 4.889-5.797 0-3.247-2.642-5.889-5.889-5.889s-5.889 2.642-5.889 5.889c0 2.906 2.118 5.32 4.889 5.797v9.277h-8.321c-.729 0-1.321-.592-1.321-1.321v-74.333h9.734c.477 2.772 2.892 4.889 5.797 4.889 3.247 0 5.889-2.642 5.889-5.889s-2.642-5.889-5.889-5.889c-2.906 0-5.32 2.117-5.797 4.889h-9.734v-7.124c0-.729.592-1.321 1.321-1.321h43.581c.552 0 1-.448 1-1s-.448-1-1-1h-43.581c-1.831 0-3.321 1.49-3.321 3.321v83.457c0 1.831 1.49 3.321 3.321 3.321h109.556c1.831 0 3.321-1.49 3.321-3.321v-83.457c-.001-1.831-1.49-3.321-3.322-3.321zm-40.827 25.21c-2.144 0-3.889-1.745-3.889-3.889s1.745-3.889 3.889-3.889c2.145 0 3.889 1.745 3.889 3.889 0 2.145-1.744 3.889-3.889 3.889zm-63.296 47.815c0-2.145 1.745-3.889 3.889-3.889s3.889 1.745 3.889 3.889-1.745 3.889-3.889 3.889-3.889-1.745-3.889-3.889zm8.778-65.469c2.145 0 3.889 1.745 3.889 3.889 0 2.145-1.745 3.889-3.889 3.889s-3.889-1.745-3.889-3.889 1.745-3.889 3.889-3.889zm95.345 80.543h-81.061v-5.568c0-.088.072-.16.16-.16h34.025c1.191 0 2.161-.969 2.161-2.161v-10.025c0-.088.072-.16.16-.16h27.228c.671 0 1.292-.304 1.706-.834l6.61-8.499h10.333v17.605h-26.574c-.477-2.772-2.892-4.889-5.797-4.889-3.247 0-5.889 2.642-5.889 5.889s2.642 5.889 5.889 5.889c2.906 0 5.32-2.117 5.797-4.889h26.573v6.481c0 .729-.592 1.321-1.321 1.321zm-27.16-8.802c0 2.144-1.745 3.889-3.889 3.889s-3.889-1.745-3.889-3.889c0-2.145 1.745-3.889 3.889-3.889s3.889 1.744 3.889 3.889z"/><path d="m55.611 18.549h6.59c.552 0 1-.448 1-1s-.448-1-1-1h-6.59c-.552 0-1 .448-1 1s.448 1 1 1z"/><path d="m44.401 38.673v-8.605c0-.552-.448-1-1-1s-1 .448-1 1v8.605h-7.086v-8.605c0-.552-.448-1-1-1s-1 .448-1 1v8.605h-7.049c-2.471 0-4.481 2.01-4.481 4.481v7.049h-8.605c-.552 0-1 .448-1 1s.448 1 1 1h8.605v7.086h-8.605c-.552 0-1 .448-1 1s.448 1 1 1h8.605v7.086h-8.605c-.552 0-1 .448-1 1s.448 1 1 1h8.605v7.049c0 2.471 2.01 4.481 4.481 4.481h7.049v8.605c0 .552.448 1 1 1s1-.448 1-1v-8.605h7.086v8.605c0 .552.448 1 1 1s1-.448 1-1v-8.605h7.086v8.605c0 .552.448 1 1 1s1-.448 1-1v-8.605h7.049c2.471 0 4.481-2.01 4.481-4.481v-7.049h8.605c.552 0 1-.448 1-1s-.448-1-1-1h-8.605v-7.085h8.605c.552 0 1-.448 1-1s-.448-1-1-1h-8.605v-7.086h8.605c.552 0 1-.448 1-1s-.448-1-1-1h-8.605v-7.049c0-2.471-2.01-4.481-4.481-4.481h-7.049v-8.605c0-.552-.448-1-1-1s-1 .448-1 1v8.605h-7.086zm18.618 4.481v34.271c0 1.368-1.113 2.481-2.481 2.481h-34.272c-1.368 0-2.481-1.113-2.481-2.481v-34.271c0-1.368 1.113-2.481 2.481-2.481h34.271c1.368 0 2.482 1.113 2.482 2.481z"/></g></svg>