<svg height="512" viewBox="0 0 57 60" width="512" xmlns="http://www.w3.org/2000/svg"><g id="031---Laser-Cutting" fill="none"><g id="Icons" transform="translate(0 1)"><path id="Shape" d="m17 25v10c0 .5522847-.4477153 1-1 1h-14c-.23365216.0004565-.46008794-.0809188-.64-.23-.17669714-.1349714-.30337143-.3249829-.36-.54.74-11.23 8.26-10.78 15.35-11.16.128998.0515895.2475802.126127.35.22.1908556.1870714.2988906.4427541.3.71z" fill="#84b5cb"/><path id="Shape" d="m13 35v22c0 .5522847-.4477153 1-1 1h-6c-.55228475 0-1-.4477153-1-1v-22z" fill="#7f8e94"/><path id="Rectangle-path" d="m41 11h6v8h-6z" fill="#0377bc"/><path id="Rectangle-path" d="m41 11h3v8h-3z" fill="#02a9f4"/><path id="Shape" d="m52 41h-16v-8h4l4 3 4-3h4z" fill="#7f8e94"/><path id="Rectangle-path" d="m49 33h3v8h-3z" fill="#545c60"/><path id="Shape" d="m27 2v40h-5v-40c0-1.1045695.8954305-2 2-2h1c1.1045695 0 2 .8954305 2 2z" fill="#7f8e94"/><path id="Shape" d="m55 42v15c0 .5522847-.4477153 1-1 1h-7.59c-.2623399-.0011046-.5137394-.1052558-.7-.29l-2.42-2.42c-.1862606-.1847442-.4376601-.2888954-.7-.29h-13.18c-.2623399.0011046-.5137394.1052558-.7.29l-2.42 2.42c-.1862606.1847442-.4376601.2888954-.7.29h-7.59c-.5522847 0-1-.4477153-1-1v-15c0-.5522847.4477153-1 1-1h36c.5522847 0 1 .4477153 1 1z" fill="#ff9801"/><path id="Shape" d="m54 41h-3c.5522847 0 1 .4477153 1 1v15c0 .5522847-.4477153 1-1 1h3c.5522847 0 1-.4477153 1-1v-15c0-.5522847-.4477153-1-1-1z" fill="#f57c00"/><rect id="Rectangle-path" fill="#707070" height="5" rx="2" width="36" x="16" y="6"/><rect id="Rectangle-path" fill="#9e9e9e" height="5" rx="2" width="33" x="16" y="6"/><g fill="#02a9f4"><path id="Shape" d="m47 19-3 6-3-6z"/><path id="Shape" d="m17 25v10c0 .5522847-.4477153 1-1 1h-14c-.23365216.0004565-.46008794-.0809188-.64-.23-.17669714-.1349714-.30337143-.3249829-.36-.54-.01042045-.0763126-.01042045-.1536874 0-.23v-10c0-.5522847.44771525-1 1-1h14c.1203342-.0020092.2396951.021863.35.07.128998.0515895.2475802.126127.35.22.1908556.1870714.2988906.4427541.3.71z"/></g></g><g id="Layer_10" fill="#000" transform="translate(0 -1)"><path id="Shape" d="m50 7h-5c-.0242105-1.17850868-.2578493-2.34331653-.69-3.44-.5556746-1.56374367-2.05084-2.59544811-3.71-2.56-2 .08-3.56 1.39-4.93 2.54-2.1105426 1.94536262-4.8096101 3.1312632-7.67 3.37v-2.91c0-1.65685425-1.3431458-3-3-3h-1c-1.6568542 0-3 1.34314575-3 3v3h-3c-1.6568542 0-3 1.34314575-3 3v1c0 1.6568542 1.3431458 3 3 3h3v28h-3c-1.1045695 0-2 .8954305-2 2v15c0 1.1045695.8954305 2 2 2h7.59c.5295768-.0022328 1.0366497-.2144122 1.41-.59l2.41-2.41h13.18l2.41 2.41c.3733503.3755878.8804232.5877672 1.41.59h7.59c1.1045695 0 2-.8954305 2-2v-15c0-1.1045695-.8954305-2-2-2h-1v-7c0-.5522847-.4477153-1-1-1h-4c-.45 0-.25-.06-4 2.75-3.52-2.64-3.53-2.75-4-2.75h-4c-.5522847 0-1 .4477153-1 1v7h-7v-28h12v6c-.5522847 0-1 .4477153-1 1s.4477153 1 1 1h.38l2.62 5.24v6.76c0 .5522847.4477153 1 1 1s1-.4477153 1-1v-6.76l2.62-5.24h.38c.5522847 0 1-.4477153 1-1s-.4477153-1-1-1v-6h2c1.6568542 0 3-1.3431458 3-3v-1c0-1.65685425-1.3431458-3-3-3zm-9.32-4c1.73-.1 2.2 2.27 2.29 4h-8.69c2.78-1.57 4.26-3.92 6.4-4zm-17.68 1c0-.55228475.4477153-1 1-1h1c.5522847 0 1 .44771525 1 1v3h-3zm31 55h-7.59l-2.41-2.41c-.3733503-.3755878-.8804232-.5877672-1.41-.59h-13.18c-.5295768.0022328-1.0366497.2144122-1.41.59l-2.41 2.41h-7.59v-15h36zm-17-23h2.67l3.73 2.8c.3555556.2666667.8444444.2666667 1.2 0l3.73-2.8h2.67v6h-14zm-11 6h-3v-28h3zm18-17.24-1.38-2.76h2.76zm2-4.76h-4v-6h4zm5-9c0 .5522847-.4477153 1-1 1h-32c-.5522847 0-1-.4477153-1-1v-1c0-.55228475.4477153-1 1-1h32c.5522847 0 1 .44771525 1 1z"/><path id="Shape" d="m31.29 24.29c-.1893127.1877666-.2957983.4433625-.2957983.71s.1064856.5222334.2957983.71l6 6c.3921222.3921222 1.0278778.3921222 1.42 0s.3921222-1.0278778 0-1.42l-6-6c-.1877666-.1893127-.4433625-.2957983-.71-.2957983s-.5222334.1064856-.71.2957983z"/><path id="Shape" d="m50 32c.265803.0015368.5212812-.1028135.71-.29l6-6c.3921221-.3921222.3921221-1.0278778 0-1.42-.3921222-.3921221-1.0278778-.3921221-1.42 0l-6 6c-.2884599.2860905-.3751619.7182668-.219371 1.0934815.155791.3752147.5231059.6188811.929371.6165185z"/><path id="Shape" d="m39.51 27.86c.4748931-.281719.6315765-.8950224.35-1.37l-3-5c-.1572029-.3478371-.4987108-.5758412-.8802382-.5876816-.3815275-.0118403-.7365164.1945486-.9149856.5319684-.1784693.3374198-.1492845.7470071.0752238 1.0557132l3 5c.1319512.2314397.350799.4006596.6079963.4701217.2571974.069462.53148.0334233.7620037-.1001217z"/><path id="Shape" d="m49.86 27.51 3-5c.2111896-.4672916.0346812-1.0186013-.408637-1.2763444-.4433181-.2577431-1.0097539-.1383777-1.311363.2763444l-3 5c-.2245083.3087061-.2536931.7182934-.0752238 1.0557132.1784692.3374198.5334581.5438087.9149856.5319684.3815274-.0118404.7230353-.2398445.8802382-.5876816z"/><path id="Shape" d="m51 46h-3c-.5522847 0-1 .4477153-1 1s.4477153 1 1 1h3c.5522847 0 1-.4477153 1-1s-.4477153-1-1-1z"/><path id="Shape" d="m51 50h-3c-.5522847 0-1 .4477153-1 1s.4477153 1 1 1h3c.5522847 0 1-.4477153 1-1s-.4477153-1-1-1z"/><path id="Shape" d="m2 39h2v20c0 1.1045695.8954305 2 2 2h6c1.1045695 0 2-.8954305 2-2v-20h2c1.1045695 0 2-.8954305 2-2v-10c0-1.1045695-.8954305-2-2-2h-14c-1.1045695 0-2 .8954305-2 2v10c0 1.1045695.8954305 2 2 2zm10 20h-6v-20h6zm-10-32h14v10h-14z"/><path id="Shape" d="m10 31h2c.5522847 0 1-.4477153 1-1s-.4477153-1-1-1h-2c-.55228475 0-1 .4477153-1 1s.44771525 1 1 1z"/><path id="Shape" d="m10 35h2c.5522847 0 1-.4477153 1-1s-.4477153-1-1-1h-2c-.55228475 0-1 .4477153-1 1s.44771525 1 1 1z"/><path id="Shape" d="m5.44 30.83c.33695051.2424921.78868217.2515849 1.13511793.0228485s.51552187-.6477281.42488207-1.0528485c-.07646356-.4498361-.44772923-.7908672-.90242688-.8289363s-.87750208.2364793-1.02770094.6673383c-.15019886.4308591.01030286.9087498.39012782 1.161598z"/><path id="Shape" d="m5.44 34.83c.38032295.2570695.88682423.2221804 1.22830713-.0846089.3414829-.3067894.43023066-.806674.21522059-1.2122612-.21501008-.4055872-.67854831-.6126937-1.12411822-.5022503-.44556991.1104435-.75871788.5100672-.7594095.9691204-.00050114.3326261.16442118.6437296.44.83z"/><path id="Shape" d="m22 46h-1c-.5522847 0-1 .4477153-1 1s.4477153 1 1 1h1c.5522847 0 1-.4477153 1-1s-.4477153-1-1-1z"/><path id="Shape" d="m34 46h-8c-.5522847 0-1 .4477153-1 1s.4477153 1 1 1h8c.5522847 0 1-.4477153 1-1s-.4477153-1-1-1z"/></g></g></svg>